<svg viewBox="0 0 16 10"  xmlns="http://www.w3.org/2000/svg">
  <g stroke="none" stroke-width="1" fill="none" fill-rule="evenodd">
    <g fill-rule="nonzero">
      <rect fill="#2557D6" x="0" y="0" width="16" height="10" rx="1"></rect>
      <path d="M5.7344e-05,4.69607389 L0.768572779,4.69607389 L0.941857685,4.28184841 L1.32980471,4.28184841 L1.50263556,4.69607389 L3.01474923,4.69607389 L3.01474923,4.3793862 L3.14972203,4.69742378 L3.93469739,4.69742378 L4.06967019,4.37466115 L4.06967019,4.69607389 L7.82756288,4.69607389 L7.82580288,4.01612335 L7.89851093,4.01612335 C7.94942379,4.01786858 7.9642944,4.02253588 7.9642944,4.10584204 L7.9642944,4.69607389 L9.90788949,4.69607389 L9.90788949,4.5377862 C10.0646575,4.62103609 10.3084937,4.69607389 10.6293517,4.69607389 L11.4470204,4.69607389 L11.6220081,4.28184841 L12.009955,4.28184841 L12.1810833,4.69607389 L13.7567667,4.69607389 L13.7567667,4.30260488 L13.9953813,4.69607389 L15.2580397,4.69607389 L15.2580397,2.09507197 L14.0084358,2.09507197 L14.0084358,2.4022535 L13.8334481,2.09507197 L12.5512079,2.09507197 L12.5512079,2.4022535 L12.3905235,2.09507197 L10.6585257,2.09507197 C10.3686012,2.09507197 10.1137538,2.13517834 9.90788949,2.24694713 L9.90788949,2.09507197 L8.71266048,2.09507197 L8.71266048,2.24694713 C8.58166101,2.13174713 8.40315435,2.09507197 8.20466837,2.09507197 L3.83803648,2.09507197 L3.54504683,2.76686624 L3.24416789,2.09507197 L1.86878656,2.09507197 L1.86878656,2.4022535 L1.71769438,2.09507197 L0.544715051,2.09507197 L-6.39999998e-08,3.3317293 L-6.39999998e-08,4.69607389 L5.54026667e-05,4.69607389 L5.7344e-05,4.69607389 Z M4.85119083,4.32089936 L4.39007403,4.32089936 L4.38837163,2.86031083 L3.73615531,4.32089936 L3.34122667,4.32089936 L2.68730752,2.85901699 L2.68730752,4.32089936 L1.77246778,4.32089936 L1.59963693,3.90493036 L0.663115179,3.90493036 L0.4885248,4.32089936 L1.00266667e-06,4.32089936 L0.805466475,2.45598556 L1.47374571,2.45598556 L2.23874197,4.22167431 L2.23874197,2.45598556 L2.97286165,2.45598556 L3.56150805,3.72110531 L4.10225003,2.45598556 L4.85112683,2.45598556 L4.85112683,4.32089936 L4.85119083,4.32089936 Z M1.4459139,3.51789533 L1.13805365,2.77443864 L0.831952939,3.51789533 L1.4459139,3.51789533 Z M6.68628203,4.32089936 L5.18370368,4.32089936 L5.18370368,2.45598556 L6.68628203,2.45598556 L6.68628203,2.84433567 L5.63351808,2.84433567 L5.63351808,3.1804862 L6.66102421,3.1804862 L6.66102421,3.56276136 L5.63351808,3.56276136 L5.63351808,3.93519299 L6.68628203,3.93519299 L6.68628203,4.32089936 Z M8.80373931,2.95824225 C8.80373931,3.25558004 8.60349376,3.40919873 8.48679744,3.45532378 C8.58521728,3.49244883 8.66927723,3.55803631 8.70929237,3.61237389 C8.77280533,3.70513036 8.78376,3.78798641 8.78376,3.95454289 L8.78376,4.32089936 L8.33008597,4.32089936 L8.32838357,4.08571805 C8.32838357,3.97349894 8.33922453,3.81211762 8.25737813,3.72239894 C8.19165141,3.65681125 8.09147179,3.64258004 7.92953899,3.64258004 L7.44669077,3.64258004 L7.44669077,4.32089936 L6.99693333,4.32089936 L6.99693333,2.45598556 L8.03147776,2.45598556 C8.26135125,2.45598556 8.43071979,2.46200425 8.57613632,2.54531062 C8.71843072,2.62861699 8.80373952,2.75022951 8.80373952,2.95824225 L8.80373931,2.95824225 Z M8.23515243,3.23516603 C8.17334187,3.27234735 8.10023659,3.27358471 8.01265771,3.27358471 L7.46623957,3.27358471 L7.46623957,2.85935945 L8.02009301,2.85935945 C8.09847701,2.85935945 8.18026645,2.86284713 8.23339285,2.89299703 C8.29174101,2.92016582 8.32783979,2.97799087 8.32783979,3.05786582 C8.32783979,3.13937219 8.29350059,3.20495987 8.23515243,3.23516603 Z M9.52510037,4.32089936 L9.06614805,4.32089936 L9.06614805,2.45598556 L9.52510037,2.45598556 L9.52510037,4.32089936 Z M14.8528759,4.32089936 L14.2154735,4.32089936 L13.3628981,2.92117346 L13.3628981,4.32089936 L12.4468666,4.32089936 L12.2718221,3.90493036 L11.3374573,3.90493036 L11.1676346,4.32089936 L10.6413092,4.32089936 C10.4226739,4.32089936 10.1458607,4.27297431 9.98909269,4.11463036 C9.83101931,3.95628662 9.74877568,3.74180531 9.74877568,3.40267367 C9.74877568,3.12609236 9.79792875,2.87324841 9.99124971,2.6734482 C10.1366658,2.52461062 10.3643827,2.45598556 10.6743428,2.45598556 L11.1097971,2.45598556 L11.1097971,2.85558577 L10.6834812,2.85558577 C10.5193344,2.85558577 10.4266473,2.87977346 10.3373653,2.96606093 C10.2606842,3.04458599 10.2080687,3.19302994 10.2080687,3.38849873 C10.2080687,3.58829873 10.2481404,3.7323552 10.3317463,3.82646136 C10.400992,3.90026157 10.5268267,3.92264904 10.6452256,3.92264904 L10.8472305,3.92264904 L11.4811706,2.45604183 L12.1551258,2.45604183 L12.9166598,4.21998684 L12.9166598,2.45604183 L13.6015125,2.45604183 L14.3921643,3.7548552 L14.3921643,2.45604183 L14.8528759,2.45604183 L14.8528759,4.32089936 Z M12.1188375,3.51789533 L11.8075718,2.77443864 L11.4980087,3.51789533 L12.1188375,3.51789533 Z" fill="#FFFFFF"></path>
      <path d="M15.9990707,7.29866582 C15.8898101,7.45700977 15.6769075,7.53727856 15.3886857,7.53727856 L14.5200476,7.53727856 L14.5200476,7.1372845 L15.3851667,7.1372845 C15.4709862,7.1372845 15.531037,7.12609066 15.5671925,7.09110318 C15.5985235,7.06224692 15.6203755,7.02034055 15.6203755,6.96943439 C15.6203755,6.91509703 15.5985235,6.87195308 15.565433,6.84607813 C15.5327966,6.8176155 15.4852894,6.80467792 15.4069621,6.80467792 C14.9846191,6.79044692 14.4577263,6.8176155 14.4577263,6.22732781 C14.4577263,5.95676497 14.6310679,5.67197091 15.103075,5.67197091 L15.9990142,5.67197091 L15.9990707,5.30083333 L15.1665882,5.30083333 C14.9153732,5.30083333 14.7328934,5.36045839 14.6036535,5.45315817 L14.6036535,5.30083333 L13.3723827,5.30083333 C13.1754861,5.30083333 12.9443639,5.34920828 12.8350462,5.45315817 L12.8350462,5.30083333 L10.6363202,5.30083333 L10.6363202,5.45315817 C10.4613325,5.32805817 10.1660727,5.30083333 10.0297948,5.30083333 L8.57949141,5.30083333 L8.57949141,5.45315817 C8.44105643,5.32029575 8.13319616,5.30083333 7.94555136,5.30083333 L6.32241707,5.30083333 L5.95098709,5.69919597 L5.60311168,5.30083333 L3.17848512,5.30083333 L3.17848512,7.90363503 L5.55747755,7.90363503 L5.94020267,7.49897219 L6.30073536,7.90363503 L7.76715819,7.90492803 L7.76715819,7.29264628 L7.91132565,7.29264628 C8.10589525,7.29562739 8.33537152,7.28786518 8.53783019,7.2011276 L8.53783019,7.90357792 L9.74736256,7.90357792 L9.74736256,7.22520255 L9.80571051,7.22520255 C9.88017835,7.22520255 9.88750016,7.22824013 9.88750016,7.30198386 L9.88750016,7.90352166 L13.5618441,7.90352166 C13.795123,7.90352166 14.0389591,7.84434671 14.1739885,7.73696539 L14.1739885,7.90352166 L15.3394756,7.90352166 C15.5820066,7.90352166 15.8188614,7.86982781 15.9990707,7.78354034 L15.9990707,7.29866497 L15.9990707,7.29866582 Z M8.71366421,6.2975087 C8.71366421,6.81568408 8.32356032,6.92267176 7.93039147,6.92267176 L7.36915947,6.92267176 L7.36915947,7.54834076 L6.4949024,7.54834076 L5.94104896,6.93082781 L5.36545707,7.54834076 L3.5837952,7.54834076 L3.5837952,5.68297707 L5.39287168,5.68297707 L5.94627072,6.29441486 L6.51840043,5.68297707 L7.95564928,5.68297707 C8.31260587,5.68297707 8.71366421,5.78090828 8.71366421,6.2975087 Z M5.13765995,7.15597771 L4.0317696,7.15597771 L4.0317696,6.78483992 L5.0192608,6.78483992 L5.0192608,6.40425223 L4.0317696,6.40425223 L4.0317696,6.06512059 L5.15945536,6.06512059 L5.65144149,6.60872123 L5.13765995,7.15597771 Z M6.91956267,7.36956858 L6.22897707,6.6097431 L6.91956267,5.87404883 L6.91956267,7.36956858 Z M7.94084693,6.54015223 L7.35957909,6.54015223 L7.35957909,6.06512059 L7.94606869,6.06512059 C8.10845611,6.06512059 8.22117909,6.13070828 8.22117909,6.29383355 C8.22117909,6.45515839 8.11367787,6.54015223 7.94084693,6.54015223 Z M10.986038,5.68297558 L12.4872542,5.68297558 L12.4872542,6.0687397 L11.4339793,6.0687397 L11.4339793,6.40787134 L12.4615424,6.40787134 L12.4615424,6.78845902 L11.4339793,6.78845902 L11.4339793,7.15959682 L12.4872542,7.16128259 L12.4872542,7.54833928 L10.986038,7.54833928 L10.986038,5.68297558 Z M10.4089011,6.68147134 C10.5090238,6.71809023 10.59087,6.78373397 10.6292393,6.83807155 C10.6927522,6.92914034 10.7019473,7.01413397 10.7037634,7.17855308 L10.7037634,7.54834076 L10.2521899,7.54834076 L10.2521899,7.31495924 C10.2521899,7.20274055 10.2630876,7.03657792 10.1794816,6.94984034 C10.1137549,6.88301529 10.0135755,6.86704034 9.84948544,6.86704034 L9.36879424,6.86704034 L9.36879424,7.54834076 L8.91682325,7.54834076 L8.91682325,5.68297707 L9.95528384,5.68297707 C10.1830007,5.68297707 10.3488503,5.69293333 10.4964802,5.77100828 C10.6384341,5.85600212 10.7277158,5.9724397 10.7277158,6.18523355 C10.7276518,6.48296497 10.5273001,6.63489639 10.4089011,6.68147134 Z M10.1546451,6.44565223 C10.0944809,6.48103355 10.0200698,6.48407113 9.93254763,6.48407113 L9.38612971,6.48407113 L9.38612971,6.06512059 L9.93998293,6.06512059 C10.0200698,6.06512059 10.1002133,6.06680637 10.1546451,6.09881444 C10.2129365,6.12902059 10.2477865,6.1867896 10.2477865,6.26660828 C10.2477865,6.34642718 10.2129365,6.41072102 10.1546451,6.44565223 Z M14.215155,6.56447134 C14.3027343,6.65430276 14.3496736,6.76770276 14.3496736,6.95968408 C14.3496736,7.36097197 14.0966993,7.5482845 13.6430822,7.5482845 L12.7670086,7.5482845 L12.7670086,7.14829066 L13.6395633,7.14829066 C13.7248719,7.14829066 13.7853769,7.13709682 13.8232917,7.10210913 C13.8542253,7.07325287 13.8764179,7.03134671 13.8764179,6.98044055 C13.8764179,6.92610276 13.852409,6.88295924 13.8215324,6.85708408 C13.7871362,6.82862144 13.739686,6.81568408 13.6613587,6.81568408 C13.2407185,6.80145287 12.7139392,6.82862144 12.7139392,6.23833355 C12.7139392,5.96777091 12.8854645,5.68297707 13.3570174,5.68297707 L14.258746,5.68297707 L14.258746,6.07998981 L13.4336418,6.07998981 C13.3518526,6.07998981 13.2986692,6.08302739 13.2534323,6.11368365 C13.2041658,6.14388981 13.1858893,6.18872102 13.1858893,6.24789597 C13.1858893,6.31826497 13.2277207,6.36613376 13.2843093,6.38683376 C13.3317598,6.40320255 13.3827292,6.40798365 13.4593536,6.40798365 L13.7014874,6.41445244 C13.945664,6.4203586 14.113273,6.4622087 14.215155,6.56447134 Z M16,6.06512059 L15.1802315,6.06512059 C15.0983851,6.06512059 15.04401,6.06815817 14.9982054,6.09881444 C14.9507552,6.12902059 14.9324789,6.17385202 14.9324789,6.23302718 C14.9324789,6.30339575 14.9725506,6.35126454 15.0308418,6.37196454 C15.0782923,6.38833333 15.1292619,6.39311465 15.2041835,6.39311465 L15.4479631,6.39958344 C15.6939561,6.40560234 15.8581596,6.44750849 15.9582822,6.54971486 C15.9765018,6.56394607 15.9874564,6.57992102 16,6.59589597 L16,6.06512059 Z" fill="#FFFFFF"></path>
    </g>
  </g>
</svg>
