<svg viewBox="0 0 16 10" xmlns="http://www.w3.org/2000/svg">
  <g stroke="none" stroke-width="1" fill="none" fill-rule="evenodd">
    <g fill-rule="nonzero">
      <rect
        fill="#000000"
        x="0"
        y="0"
        width="15.9259259"
        height="10"
        rx="1"
      ></rect>
      <path
        d="M4.70533347,8.86086552 L4.70533347,8.33727705 C4.70533347,8.13648034 4.58253987,8.00563589 4.38098901,8.00563589 C4.27513247,8.00563589 4.16186596,8.04061202 4.08289698,8.1531256 C4.02150018,8.05704659 3.93469782,8.00563589 3.80237714,8.00563589 C3.70244675,8.00133779 3.60701959,8.04724011 3.54832143,8.12784165 L3.54832143,8.02249186 L3.38170322,8.02249186 L3.38170322,8.86023342 L3.54832143,8.86023342 L3.54832143,8.38089186 C3.54832143,8.23340215 3.63597065,8.16281779 3.75876424,8.16281779 C3.88155783,8.16281779 3.95163486,8.24140873 3.95163486,8.38089186 L3.95163486,8.86086552 L4.11825307,8.86086552 L4.11825307,8.38089186 C4.11825307,8.23340215 4.20590229,8.16281779 4.32869588,8.16281779 C4.45148947,8.16281779 4.5215665,8.24140873 4.5215665,8.38089186 L4.5215665,8.86086552 L4.70533347,8.86086552 Z M7.44109002,8.03176264 L7.13410604,8.03176264 L7.13410604,7.77892314 L6.96791126,7.77892314 L6.96791126,8.03176264 L6.79261283,8.03176264 L6.79261283,8.17925235 L6.96791126,8.17925235 L6.96791126,8.57283919 C6.96791126,8.76478651 7.0379883,8.87835359 7.24843111,8.87835359 C7.32815769,8.87669924 7.406277,8.85572608 7.47602268,8.81725071 L7.42330612,8.669761 C7.37600275,8.69918639 7.32114344,8.71433586 7.26536816,8.71337581 C7.17771894,8.71337581 7.13389433,8.66091161 7.13389433,8.57368198 L7.13389433,8.17250997 L7.44087831,8.17250997 L7.44087831,8.03281614 L7.44109002,8.03176264 Z M9.00183893,8.00563589 C8.90951836,8.00358886 8.82291672,8.05000345 8.77382393,8.12784165 L8.77382393,8.02249186 L8.60720572,8.02249186 L8.60720572,8.86023342 L8.77382393,8.86023342 L8.77382393,8.38974124 C8.77382393,8.25004742 8.84390096,8.16281779 8.95801432,8.16281779 C8.99652088,8.16437239 9.03472898,8.17023873 9.07191596,8.18030585 L9.12463252,8.02312396 C9.08442848,8.01303693 9.04327202,8.0071755 9.00183893,8.00563589 Z M6.64314338,8.09286552 C6.55549416,8.03176264 6.43270057,8.00563589 6.30122674,8.00563589 C6.09078393,8.00563589 5.9593101,8.10171491 5.9593101,8.26753548 C5.9593101,8.40722931 6.05585127,8.48560956 6.23982995,8.511947 L6.32747917,8.52058569 C6.42402034,8.53807375 6.48541713,8.57304988 6.48541713,8.6166647 C6.48541713,8.67776758 6.4153401,8.72201449 6.28365456,8.72201449 C6.18310411,8.72407337 6.08462073,8.69344926 6.00313471,8.63478486 L5.91548549,8.76562931 C6.03827908,8.85285894 6.1873251,8.8709791 6.27539775,8.8709791 C6.52098493,8.8709791 6.65245876,8.75762272 6.65245876,8.60044083 C6.65245876,8.45295112 6.54660221,8.38236676 6.36304697,8.35602931 L6.27539775,8.34739063 C6.19642876,8.33875194 6.12719858,8.31241449 6.12719858,8.260161 C6.12719858,8.19905812 6.19727562,8.1548112 6.29381678,8.1548112 C6.39967333,8.1548112 6.5042596,8.19842602 6.55697616,8.22455277 L6.64314338,8.09286552 Z M9.18602931,8.44199474 C9.18602931,8.69483425 9.35264752,8.87835359 9.62448712,8.87835359 C9.74728072,8.87835359 9.83492994,8.85222684 9.92257916,8.78227458 L9.83492994,8.65143013 C9.77287171,8.70144769 9.69565878,8.72914099 9.61580689,8.73002108 C9.46760772,8.73002108 9.35264752,8.6166647 9.35264752,8.45084412 C9.35264752,8.28502355 9.46612573,8.17250997 9.61580689,8.17250997 C9.69565878,8.17339006 9.77287171,8.20108336 9.83492994,8.25110091 L9.92257916,8.12025647 C9.83492994,8.05051491 9.74728072,8.02417746 9.62448712,8.02417746 C9.36132775,8.00668939 9.18602931,8.18999803 9.18602931,8.44304824 L9.18602931,8.44199474 Z M8.01102166,8.00563589 C7.76543448,8.00563589 7.59881627,8.18009515 7.59881627,8.44199474 C7.59881627,8.70389433 7.77411471,8.87835359 8.02838214,8.87835359 C8.15208133,8.88095379 8.2728787,8.84090557 8.37029878,8.76499721 L8.28264956,8.64279145 C8.21219423,8.69712546 8.1261639,8.7276824 8.03706237,8.73002108 C7.92316073,8.73002108 7.80036714,8.66027951 7.78300666,8.511947 L8.40565486,8.511947 L8.40565486,8.44220544 C8.40565486,8.18030585 8.2477169,8.00584659 8.01102166,8.00584659 L8.01102166,8.00563589 Z M8.00234142,8.16281779 C8.12513502,8.16281779 8.21278424,8.24140873 8.22146447,8.37225318 L7.76564619,8.37225318 C7.79189861,8.25004742 7.87150274,8.16281779 8.00234142,8.16281779 Z M5.7312951,8.44199474 L5.7312951,8.02312396 L5.5646769,8.02312396 L5.5646769,8.12847375 C5.5032801,8.04988281 5.41647774,8.00626799 5.29283729,8.00626799 C5.05614206,8.00626799 4.88063191,8.18957663 4.88063191,8.44262684 C4.88063191,8.69567705 5.05593034,8.87898569 5.29283729,8.87898569 C5.41563089,8.87898569 5.5032801,8.83537087 5.5646769,8.75677993 L5.5646769,8.86212972 L5.7312951,8.86212972 L5.7312951,8.44199474 Z M5.05614206,8.44199474 C5.05614206,8.28481285 5.15268323,8.16281779 5.31930143,8.16281779 C5.47723939,8.16281779 5.57335714,8.28502355 5.57335714,8.44199474 C5.57335714,8.60781532 5.46750059,8.7211717 5.31930143,8.7211717 C5.15268323,8.72981038 5.05614206,8.59896593 5.05614206,8.44199474 Z M11.5362563,8.00563589 C11.4439358,8.00358886 11.3573341,8.05000345 11.3082413,8.12784165 L11.3082413,8.02249186 L11.1416231,8.02249186 L11.1416231,8.86023342 L11.3080296,8.86023342 L11.3080296,8.38974124 C11.3080296,8.25004742 11.3781066,8.16281779 11.49222,8.16281779 C11.5307266,8.16437239 11.5689347,8.17023873 11.6061216,8.18030585 L11.6588382,8.02312396 C11.6186342,8.01303693 11.5774777,8.0071755 11.5360446,8.00563589 L11.5362563,8.00563589 Z M10.8873557,8.44199474 L10.8873557,8.02312396 L10.7207375,8.02312396 L10.7207375,8.12847375 C10.6593407,8.04988281 10.5725383,8.00626799 10.4488979,8.00626799 C10.2122027,8.00626799 10.0366925,8.18957663 10.0366925,8.44262684 C10.0366925,8.69567705 10.2119909,8.87898569 10.4488979,8.87898569 C10.5716915,8.87898569 10.6593407,8.83537087 10.7207375,8.75677993 L10.7207375,8.86212972 L10.8873557,8.86212972 L10.8873557,8.44199474 Z M10.2122027,8.44199474 C10.2122027,8.28481285 10.3087438,8.16281779 10.475362,8.16281779 C10.6333,8.16281779 10.7294177,8.28502355 10.7294177,8.44199474 C10.7294177,8.60781532 10.6235612,8.7211717 10.475362,8.7211717 C10.3087438,8.72981038 10.2122027,8.59896593 10.2122027,8.44199474 Z M12.5797901,8.44199474 L12.5797901,7.69148281 L12.4131719,7.69148281 L12.4131719,8.12784165 C12.3517752,8.04925071 12.2649728,8.00563589 12.1413323,8.00563589 C11.9046371,8.00563589 11.729127,8.18894453 11.729127,8.44199474 C11.729127,8.69504495 11.9044254,8.87835359 12.1413323,8.87835359 C12.2641259,8.87835359 12.3517752,8.83473877 12.4131719,8.75614783 L12.4131719,8.86149762 L12.5797901,8.86149762 L12.5797901,8.44199474 Z M11.9046371,8.44199474 C11.9046371,8.28481285 12.0011783,8.16281779 12.1677965,8.16281779 C12.3257344,8.16281779 12.4218522,8.28502355 12.4218522,8.44199474 C12.4218522,8.60781532 12.3159956,8.7211717 12.1677965,8.7211717 C12.0009666,8.73002108 11.9044254,8.59917663 11.9044254,8.44199474 L11.9046371,8.44199474 Z"
        fill="#FFFFFF"
      ></path>
      <g transform="translate(2.839506, 0.987654)">
        <rect
          fill="#FF5F00"
          x="3.61076676"
          y="0.682455967"
          width="3.04274054"
          height="4.93921975"
        ></rect>
        <path
          d="M3.91775074,3.15206584 C3.91796182,2.18943324 4.36045255,1.27973891 5.11901082,0.682455967 C3.82485142,-0.330195686 1.96601018,-0.182997526 0.849042788,1.02058674 C-0.267924601,2.224171 -0.267924601,4.07996068 0.849042788,5.28354494 C1.96601018,6.48712921 3.82485142,6.63432738 5.11901082,5.62167572 C4.36045255,5.02439277 3.91796182,4.11469845 3.91775074,3.15206584 Z"
          fill="#EB001B"
        ></path>
        <path
          d="M10.2312468,3.15206584 C10.232122,4.35403702 9.54311129,5.45092524 8.45699832,5.976626 C7.37088535,6.50232674 6.0784772,6.36448555 5.12896133,5.62167572 C5.88770768,5.0245396 6.33025513,4.1147542 6.33025513,3.15206584 C6.33025513,2.18937749 5.88770768,1.27959209 5.12896133,0.682455967 C6.0784772,-0.0603538546 7.37088535,-0.198195058 8.45699832,0.327505697 C9.54311129,0.85320645 10.232122,1.95009467 10.2312468,3.15206584 Z"
          fill="#F79E1B"
        ></path>
      </g>
    </g>
  </g>
</svg>
