<svg viewBox="0 0 16 10" xmlns="http://www.w3.org/2000/svg">
  <g stroke="none" stroke-width="1" fill="none" fill-rule="evenodd">
    <g fill-rule="nonzero">
      <rect
        fill="#000000"
        x="0"
        y="0"
        width="16"
        height="10"
        rx="1"
      ></rect>
      <g transform="translate(2.837333, 1.024000)">
        <path
          d="M3.13173333,7.97376 L3.13173333,7.44533333 C3.13173333,7.24586667 3.00373333,7.11168 2.8,7.10997333 C2.69333333,7.10826667 2.58112,7.14176 2.50346667,7.25930667 C2.44522667,7.16586667 2.35413333,7.10997333 2.22464,7.10997333 C2.12592672,7.10501822 2.03195728,7.15265212 1.9776,7.2352 L1.9776,7.13109333 L1.79392,7.13109333 L1.79392,7.97482667 L1.97930667,7.97482667 L1.97930667,7.50613333 C1.97930667,7.35957333 2.06058667,7.28192 2.18581333,7.28192 C2.30762667,7.28192 2.36949333,7.36128 2.36949333,7.50421333 L2.36949333,7.97354667 L2.55488,7.97354667 L2.55488,7.50613333 C2.55488,7.35957333 2.64021333,7.28192 2.76138667,7.28192 C2.88661333,7.28192 2.94677333,7.36128 2.94677333,7.50421333 L2.94677333,7.97354667 L3.13173333,7.97376 Z M4.16597333,7.552 L4.16597333,7.13024 L3.98229333,7.13024 L3.98229333,7.232 C3.92405333,7.15605333 3.83573333,7.10848 3.71584,7.10848 C3.47925333,7.10848 3.29408,7.29386667 3.29408,7.55157333 C3.29408,7.80928 3.47946667,7.99466667 3.71584,7.99466667 C3.83594667,7.99466667 3.92405333,7.94709333 3.98229333,7.87114667 L3.98229333,7.97354667 L4.16597333,7.97354667 L4.16597333,7.552 Z M3.48330667,7.552 C3.48330667,7.40373333 3.58037333,7.28192 3.73930667,7.28192 C3.8912,7.28192 3.99338667,7.3984 3.99338667,7.552 C3.99338667,7.7056 3.89098667,7.82208 3.73930667,7.82208 C3.57994667,7.82208 3.48288,7.70026667 3.48288,7.552 L3.48330667,7.552 Z M8.09386667,7.10805333 C8.15587418,7.1074423 8.21740252,7.11896529 8.27498667,7.14197333 C8.32863401,7.16340595 8.37755727,7.1951517 8.41898667,7.23541333 C8.45979868,7.2754295 8.49215454,7.32323782 8.51413333,7.376 C8.55991473,7.48901519 8.55991473,7.61541148 8.51413333,7.72842667 C8.49215454,7.78118884 8.45979868,7.82899716 8.41898667,7.86901333 C8.3775642,7.90928365 8.3286391,7.94103059 8.27498667,7.96245333 C8.15836085,8.0078563 8.02894581,8.0078563 7.91232,7.96245333 C7.85876269,7.94109077 7.80996625,7.90933321 7.76874667,7.86901333 C7.72818101,7.82888102 7.69598547,7.78109532 7.67402667,7.72842667 C7.62824527,7.61541148 7.62824527,7.48901519 7.67402667,7.376 C7.69599548,7.32333675 7.72818976,7.2755529 7.76874667,7.23541333 C7.80996979,7.19509788 7.85876529,7.16334093 7.91232,7.14197333 C7.97003718,7.11891051 8.03171586,7.10738652 8.09386667,7.10805333 Z M8.09386667,7.28170667 C8.05798871,7.28139607 8.02239923,7.28813707 7.98912,7.30154667 C7.95775458,7.31414108 7.92929602,7.33301666 7.90549333,7.35701333 C7.88153796,7.38150564 7.8626845,7.41051098 7.85002667,7.44234667 C7.82302445,7.51295539 7.82302445,7.59104461 7.85002667,7.66165333 C7.86267437,7.69349427 7.88152907,7.7225015 7.90549333,7.74698667 C7.92929602,7.77098334 7.95775458,7.78985892 7.98912,7.80245333 C8.05652241,7.82889137 8.13142426,7.82889137 8.19882667,7.80245333 C8.23027806,7.78978342 8.25886195,7.77092096 8.28288,7.74698667 C8.30704702,7.72257982 8.32605542,7.69355934 8.33877333,7.66165333 C8.36577555,7.59104461 8.36577555,7.51295539 8.33877333,7.44234667 C8.32605542,7.41044066 8.30704702,7.38142018 8.28288,7.35701333 C8.25886195,7.33307904 8.23027806,7.31421658 8.19882667,7.30154667 C8.16549574,7.28803657 8.12983055,7.28122249 8.09386667,7.28149333 L8.09386667,7.28170667 Z M5.1648,7.552 C5.16309333,7.28896 5.00074667,7.10890667 4.76416,7.10890667 C4.51712,7.10890667 4.34410667,7.28896 4.34410667,7.552 C4.34410667,7.82037333 4.52416,7.99509333 4.77653333,7.99509333 C4.90453333,7.99509333 5.02016,7.96330667 5.12256,7.87690667 L5.03253333,7.74101333 C4.96284292,7.79689916 4.87652041,7.82797527 4.7872,7.82933333 C4.66901333,7.82933333 4.56128,7.77472 4.53482667,7.62282667 L5.16138667,7.62282667 C5.16266667,7.59957333 5.1648,7.57674667 5.1648,7.552 Z M4.53653333,7.47797333 C4.55594667,7.35616 4.62997333,7.27317333 4.76074667,7.27317333 C4.87893333,7.27317333 4.95488,7.3472 4.97408,7.47797333 L4.53653333,7.47797333 Z M5.93792,7.34570667 C5.85776646,7.29953167 5.76715872,7.27456681 5.67466667,7.27317333 C5.57397333,7.27317333 5.51402667,7.31029333 5.51402667,7.37194667 C5.51402667,7.42848 5.57802667,7.44426667 5.65696,7.45493333 L5.74336,7.46730667 C5.92704,7.49376 6.03818667,7.57141333 6.03818667,7.71968 C6.03818667,7.88032 5.89696,7.99509333 5.65418667,7.99509333 C5.51658667,7.99509333 5.38944,7.95968 5.28874667,7.88565333 L5.37514667,7.74272 C5.45616608,7.80283098 5.55505152,7.83393931 5.65589333,7.83104 C5.78112,7.83104 5.84789333,7.79392 5.84789333,7.72864 C5.84789333,7.68106667 5.80032,7.65461333 5.69962667,7.64032 L5.61322667,7.62794667 C5.42442667,7.60149333 5.32202667,7.5168 5.32202667,7.37898667 C5.32202667,7.21130667 5.45962667,7.10890667 5.67317333,7.10890667 C5.80736,7.10890667 5.92917333,7.13898667 6.01728,7.19722667 L5.93792,7.34570667 Z M6.82005333,7.29813333 L6.51989333,7.29813333 L6.51989333,7.68 C6.51989333,7.76533333 6.54997333,7.82122667 6.64170667,7.82122667 C6.69897312,7.81934409 6.75482799,7.80297664 6.80405333,7.77365333 L6.85696,7.93066667 C6.78810613,7.97358084 6.70854541,7.99620685 6.62741333,7.99594667 C6.41024,7.99594667 6.33450667,7.87946667 6.33450667,7.68341333 L6.33450667,7.29941333 L6.16384,7.29941333 L6.16384,7.13173333 L6.33450667,7.13173333 L6.33450667,6.87573333 L6.51989333,6.87573333 L6.51989333,7.13173333 L6.81984,7.13173333 L6.82005333,7.29813333 Z M7.45536,7.10933333 C7.4998723,7.10954692 7.54402325,7.11733828 7.58592,7.13237333 L7.52938667,7.30538667 C7.49290462,7.29079514 7.45390193,7.28354556 7.41461333,7.28405333 C7.29450667,7.28405333 7.23456,7.36170667 7.23456,7.50122667 L7.23456,7.97418667 L7.05109333,7.97418667 L7.05109333,7.13024 L7.232,7.13024 L7.232,7.232 C7.27786082,7.15319889 7.36315793,7.1058025 7.45429333,7.10848 L7.45536,7.10933333 Z"
          fill="#FFFFFF"
        ></path>
        <g>
          <rect
            fill="#7673C0"
            x="3.77493333"
            y="0.690986667"
            width="2.784"
            height="5.00288"
          ></rect>
          <path
            d="M3.95178667,3.19232 C3.95104299,2.21588352 4.3994749,1.29337253 5.16778667,0.690773333 C3.86331665,-0.334545598 1.98992467,-0.185296762 0.86424826,1.03362635 C-0.261428149,2.25254946 -0.261428149,4.13187721 0.86424826,5.35080032 C1.98992467,6.56972343 3.86331665,6.71897227 5.16778667,5.69365333 C4.39953389,5.09110033 3.95110859,4.16868162 3.95178667,3.19232 Z"
            fill="#EB001B"
          ></path>
          <path
            d="M10.3146667,3.19232 C10.3146887,4.41042645 9.61923328,5.52162893 8.52363857,6.05403439 C7.42804386,6.58643985 6.12463665,6.44658686 5.16693333,5.69386667 C5.93422046,5.09056399 6.38218059,4.16849205 6.38218059,3.19242667 C6.38218059,2.21636128 5.93422046,1.29428934 5.16693333,0.690986667 C6.12460638,-0.0617097551 7.42796469,-0.201579581 8.52354263,0.33077232 C9.61912058,0.863124222 10.3146071,1.97425203 10.3146667,3.19232 Z"
            fill="#00A1DF"
          ></path>
        </g>
      </g>
    </g>
  </g>
</svg>
