<svg viewBox="0 0 16 10" xmlns="http://www.w3.org/2000/svg">
  <g stroke="none" stroke-width="1" fill="none" fill-rule="evenodd">
    <g fill-rule="nonzero">
      <rect
        fill="#0E4595"
        x="0"
        y="0"
        width="16"
        height="10"
        rx="1"
      ></rect>
      <g transform="translate(0.000000, 2.000000)">
        <polygon
          fill="#FFFFFF"
          points="5.93488 5.13018667 6.64658133 0.953930667 7.78490667 0.953930667 7.07271467 5.13018667"
        ></polygon>
        <path
          d="M11.1852267,1.044 C10.9596907,0.959392 10.6063253,0.868597333 10.1650027,0.868597333 C9.040224,0.868597333 8.247904,1.43501867 8.24116267,2.246816 C8.23482667,2.84690133 8.80679467,3.181664 9.23858133,3.38142933 C9.68165333,3.58612267 9.830624,3.71668267 9.828512,3.89946667 C9.825696,4.17940267 9.47467733,4.307296 9.147488,4.307296 C8.691872,4.307296 8.449824,4.244 8.076,4.08807467 L7.929312,4.02168533 L7.76954667,4.95659733 C8.035424,5.07316267 8.527072,5.174176 9.03755733,5.17940267 C10.2341227,5.17940267 11.010912,4.61946667 11.019744,3.75258667 C11.024032,3.27751467 10.7207573,2.91595733 10.064032,2.61790933 C9.666144,2.42471467 9.42247467,2.29579733 9.425056,2.10017067 C9.425056,1.92658133 9.63130667,1.74096 10.0769387,1.74096 C10.449184,1.73517867 10.718816,1.816352 10.9289067,1.90096 L11.0309227,1.949152 L11.1852267,1.044"
          fill="#FFFFFF"
        ></path>
        <path
          d="M14.1144427,0.953930667 L13.234848,0.953930667 C12.9623573,0.953930667 12.7584533,1.02829867 12.6387733,1.300256 L10.9482133,5.12752 L12.1435413,5.12752 C12.1435413,5.12752 12.3389973,4.61291733 12.3832,4.499936 C12.513824,4.499936 13.6750187,4.501728 13.8410347,4.501728 C13.8750827,4.64792533 13.9795307,5.12752 13.9795307,5.12752 L15.0357867,5.12752 L14.1144427,0.953930667 Z M12.71888,3.65061333 C12.813024,3.40999467 13.1724053,2.48318933 13.1724053,2.48318933 C13.1656853,2.494304 13.2658453,2.24139733 13.3233387,2.08459733 L13.400288,2.44466133 C13.400288,2.44466133 13.6182507,3.44154667 13.6637973,3.650592 L12.71888,3.650592 L12.71888,3.65061333 Z"
          fill="#FFFFFF"
        ></path>
        <path
          d="M4.96858667,0.953930667 L3.85413333,3.801824 L3.735392,3.223072 C3.52792533,2.55589333 2.88152533,1.83307733 2.15888,1.4712 L3.17790933,5.12353067 L4.38228267,5.122144 L6.174368,0.953930667 L4.96858667,0.953930667"
          fill="#FFFFFF"
        ></path>
        <path
          d="M2.81428267,0.953930667 L0.978741333,0.953930667 L0.964213333,1.04082133 C2.39224533,1.38650667 3.33716267,2.22189867 3.72939733,3.22565333 L3.330272,1.30650667 C3.26136533,1.04205867 3.06151467,0.963146667 2.81428267,0.953930667"
          fill="#F2AE14"
        ></path>
      </g>
    </g>
  </g>
</svg>
