<svg viewBox="0 0 16 10" xmlns="http://www.w3.org/2000/svg">
  <g
    id="Page-1"
    stroke="none"
    stroke-width="1"
    fill="none"
    fill-rule="evenodd"
  >
    <g id="default" fill-rule="nonzero">
      <rect
        id="Rectangle-1"
        fill="#000C9D"
        x="0"
        y="0"
        width="16"
        height="10"
        rx="1"
      ></rect>
      <rect
        id="rect4183"
        fill="#9D9400"
        x="1.03915145"
        y="3.27629141"
        width="2.35358165"
        height="2.12648145"
        rx="1.06324073"
      ></rect>
      <g
        id="text4185"
        transform="translate(1.088000, 5.952000)"
        fill="#FFFFFF"
      >
        <polygon
          id="path4219"
          points="0.578186112 0.669229227 0.578186112 0.588269227 0.469012779 0.588269227 0.469012779 0.34784256 0.379466112 0.34784256 0.370879445 0.588269227 0.126772779 0.588269227 0.352479445 0.05344256 0.267839445 0.01664256 0.018826112 0.595629227 0.018826112 0.669229227 0.369652779 0.669229227 0.369652779 0.875309227 0.469012779 0.875309227 0.469012779 0.669229227"
        ></polygon>
        <path
          d="M0.996000277,0.01664256 C0.910133611,0.01664256 0.827946944,0.04608256 0.756800277,0.114775893 L0.812000277,0.177335893 C0.868426944,0.124589227 0.918720277,0.0988292267 0.991093611,0.0988292267 C1.08064021,0.0988292267 1.15178688,0.14912256 1.15178688,0.242349227 C1.15178688,0.34416256 1.07205355,0.390775893 0.991093611,0.390775893 L0.940800277,0.390775893 L0.928533611,0.471735893 L0.999680277,0.471735893 C1.09904021,0.471735893 1.17509355,0.510989227 1.17509355,0.632429227 C1.17509355,0.73792256 1.10517355,0.805389227 0.986186944,0.805389227 C0.917493611,0.805389227 0.846346944,0.777175893 0.798506944,0.720749227 L0.729813611,0.777175893 C0.793600277,0.85568256 0.894186944,0.88880256 0.988640277,0.88880256 C1.16282688,0.88880256 1.28181355,0.77840256 1.28181355,0.632429227 C1.28181355,0.501175893 1.18858688,0.43248256 1.08922688,0.42512256 C1.17877355,0.407949227 1.25482688,0.330669227 1.25482688,0.228855893 C1.25482688,0.113549227 1.15424021,0.01664256 0.996000277,0.01664256 Z"
          id="path4221"
        ></path>
        <path
          d="M1.73152107,0.01664256 C1.61744107,0.01664256 1.54138773,0.05712256 1.47392107,0.13808256 L1.54506773,0.192055893 C1.59904107,0.129495893 1.64442773,0.102509227 1.72784107,0.102509227 C1.8222944,0.102509227 1.87872107,0.161389227 1.87872107,0.25584256 C1.87872107,0.394455893 1.81002773,0.486455893 1.4910944,0.791895893 L1.4910944,0.875309227 L1.99280107,0.875309227 L2.00506773,0.788215893 L1.60762773,0.788215893 C1.88608107,0.534295893 1.98544107,0.407949227 1.98544107,0.253389227 C1.98544107,0.118455893 1.89098773,0.01664256 1.73152107,0.01664256 Z"
          id="path4223"
        ></path>
        <polygon
          id="path4225"
          points="2.77125525 0.791895893 2.59461525 0.791895893 2.59461525 0.03136256 2.50506859 0.03136256 2.25482859 0.18592256 2.29898859 0.258295893 2.49280192 0.14176256 2.49280192 0.791895893 2.28426859 0.791895893 2.28426859 0.875309227 2.77125525 0.875309227"
        ></polygon>
        <polygon
          id="path4227"
          points="4.25579029 0.669229227 4.25579029 0.588269227 4.14661696 0.588269227 4.14661696 0.34784256 4.05707029 0.34784256 4.04848363 0.588269227 3.80437696 0.588269227 4.03008363 0.05344256 3.94544363 0.01664256 3.69643029 0.595629227 3.69643029 0.669229227 4.04725696 0.669229227 4.04725696 0.875309227 4.14661696 0.875309227 4.14661696 0.669229227"
        ></polygon>
        <path
          d="M4.67360448,0.01664256 C4.58773781,0.01664256 4.50555115,0.04608256 4.43440448,0.114775893 L4.48960448,0.177335893 C4.54603115,0.124589227 4.59632448,0.0988292267 4.66869781,0.0988292267 C4.75824448,0.0988292267 4.82939115,0.14912256 4.82939115,0.242349227 C4.82939115,0.34416256 4.74965781,0.390775893 4.66869781,0.390775893 L4.61840448,0.390775893 L4.60613781,0.471735893 L4.67728448,0.471735893 C4.77664448,0.471735893 4.85269781,0.510989227 4.85269781,0.632429227 C4.85269781,0.73792256 4.78277781,0.805389227 4.66379115,0.805389227 C4.59509781,0.805389227 4.52395115,0.777175893 4.47611115,0.720749227 L4.40741781,0.777175893 C4.47120448,0.85568256 4.57179115,0.88880256 4.66624448,0.88880256 C4.84043115,0.88880256 4.95941781,0.77840256 4.95941781,0.632429227 C4.95941781,0.501175893 4.86619115,0.43248256 4.76683115,0.42512256 C4.85637781,0.407949227 4.93243115,0.330669227 4.93243115,0.228855893 C4.93243115,0.113549227 4.83184448,0.01664256 4.67360448,0.01664256 Z"
          id="path4229"
        ></path>
        <path
          d="M5.40912533,0.01664256 C5.29504533,0.01664256 5.218992,0.05712256 5.15152533,0.13808256 L5.222672,0.192055893 C5.27664533,0.129495893 5.322032,0.102509227 5.40544533,0.102509227 C5.49989867,0.102509227 5.55632533,0.161389227 5.55632533,0.25584256 C5.55632533,0.394455893 5.487632,0.486455893 5.16869867,0.791895893 L5.16869867,0.875309227 L5.67040533,0.875309227 L5.682672,0.788215893 L5.285232,0.788215893 C5.56368533,0.534295893 5.66304533,0.407949227 5.66304533,0.253389227 C5.66304533,0.118455893 5.568592,0.01664256 5.40912533,0.01664256 Z"
          id="path4231"
        ></path>
        <polygon
          id="path4233"
          points="6.44885952 0.791895893 6.27221952 0.791895893 6.27221952 0.03136256 6.18267285 0.03136256 5.93243285 0.18592256 5.97659285 0.258295893 6.17040619 0.14176256 6.17040619 0.791895893 5.96187285 0.791895893 5.96187285 0.875309227 6.44885952 0.875309227"
        ></polygon>
        <polygon
          id="path4235"
          points="7.93339435 0.669229227 7.93339435 0.588269227 7.82422101 0.588269227 7.82422101 0.34784256 7.73467435 0.34784256 7.72608768 0.588269227 7.48198101 0.588269227 7.70768768 0.05344256 7.62304768 0.01664256 7.37403435 0.595629227 7.37403435 0.669229227 7.72486101 0.669229227 7.72486101 0.875309227 7.82422101 0.875309227 7.82422101 0.669229227"
        ></polygon>
        <path
          d="M8.35120853,0.01664256 C8.26534187,0.01664256 8.1831552,0.04608256 8.11200853,0.114775893 L8.16720853,0.177335893 C8.2236352,0.124589227 8.27392853,0.0988292267 8.34630187,0.0988292267 C8.43584853,0.0988292267 8.5069952,0.14912256 8.5069952,0.242349227 C8.5069952,0.34416256 8.42726187,0.390775893 8.34630187,0.390775893 L8.29600853,0.390775893 L8.28374187,0.471735893 L8.35488853,0.471735893 C8.45424853,0.471735893 8.53030187,0.510989227 8.53030187,0.632429227 C8.53030187,0.73792256 8.46038187,0.805389227 8.3413952,0.805389227 C8.27270187,0.805389227 8.2015552,0.777175893 8.1537152,0.720749227 L8.08502187,0.777175893 C8.14880853,0.85568256 8.2493952,0.88880256 8.34384853,0.88880256 C8.5180352,0.88880256 8.63702187,0.77840256 8.63702187,0.632429227 C8.63702187,0.501175893 8.5437952,0.43248256 8.4444352,0.42512256 C8.53398187,0.407949227 8.6100352,0.330669227 8.6100352,0.228855893 C8.6100352,0.113549227 8.50944853,0.01664256 8.35120853,0.01664256 Z"
          id="path4237"
        ></path>
        <path
          d="M9.08672939,0.01664256 C8.97264939,0.01664256 8.89659605,0.05712256 8.82912939,0.13808256 L8.90027605,0.192055893 C8.95424939,0.129495893 8.99963605,0.102509227 9.08304939,0.102509227 C9.17750272,0.102509227 9.23392939,0.161389227 9.23392939,0.25584256 C9.23392939,0.394455893 9.16523605,0.486455893 8.84630272,0.791895893 L8.84630272,0.875309227 L9.34800939,0.875309227 L9.36027605,0.788215893 L8.96283605,0.788215893 C9.24128939,0.534295893 9.34064939,0.407949227 9.34064939,0.253389227 C9.34064939,0.118455893 9.24619605,0.01664256 9.08672939,0.01664256 Z"
          id="path4239"
        ></path>
        <polygon
          id="path4241"
          points="10.1264636 0.791895893 9.94982357 0.791895893 9.94982357 0.03136256 9.86027691 0.03136256 9.61003691 0.18592256 9.65419691 0.258295893 9.84801024 0.14176256 9.84801024 0.791895893 9.63947691 0.791895893 9.63947691 0.875309227 10.1264636 0.875309227"
        ></polygon>
        <polygon
          id="path4243"
          points="11.6109986 0.669229227 11.6109986 0.588269227 11.5018253 0.588269227 11.5018253 0.34784256 11.4122786 0.34784256 11.4036919 0.588269227 11.1595853 0.588269227 11.3852919 0.05344256 11.3006519 0.01664256 11.0516386 0.595629227 11.0516386 0.669229227 11.4024653 0.669229227 11.4024653 0.875309227 11.5018253 0.875309227 11.5018253 0.669229227"
        ></polygon>
        <path
          d="M12.0288128,0.01664256 C11.9429461,0.01664256 11.8607595,0.04608256 11.7896128,0.114775893 L11.8448128,0.177335893 C11.9012395,0.124589227 11.9515328,0.0988292267 12.0239061,0.0988292267 C12.1134528,0.0988292267 12.1845995,0.14912256 12.1845995,0.242349227 C12.1845995,0.34416256 12.1048661,0.390775893 12.0239061,0.390775893 L11.9736128,0.390775893 L11.9613461,0.471735893 L12.0324928,0.471735893 C12.1318528,0.471735893 12.2079061,0.510989227 12.2079061,0.632429227 C12.2079061,0.73792256 12.1379861,0.805389227 12.0189995,0.805389227 C11.9503061,0.805389227 11.8791595,0.777175893 11.8313195,0.720749227 L11.7626261,0.777175893 C11.8264128,0.85568256 11.9269995,0.88880256 12.0214528,0.88880256 C12.1956395,0.88880256 12.3146261,0.77840256 12.3146261,0.632429227 C12.3146261,0.501175893 12.2213995,0.43248256 12.1220395,0.42512256 C12.2115861,0.407949227 12.2876395,0.330669227 12.2876395,0.228855893 C12.2876395,0.113549227 12.1870528,0.01664256 12.0288128,0.01664256 Z"
          id="path4245"
        ></path>
        <path
          d="M12.7643337,0.01664256 C12.6502537,0.01664256 12.5742003,0.05712256 12.5067337,0.13808256 L12.5778803,0.192055893 C12.6318537,0.129495893 12.6772403,0.102509227 12.7606537,0.102509227 C12.855107,0.102509227 12.9115337,0.161389227 12.9115337,0.25584256 C12.9115337,0.394455893 12.8428403,0.486455893 12.523907,0.791895893 L12.523907,0.875309227 L13.0256137,0.875309227 L13.0378803,0.788215893 L12.6404403,0.788215893 C12.9188937,0.534295893 13.0182537,0.407949227 13.0182537,0.253389227 C13.0182537,0.118455893 12.9238003,0.01664256 12.7643337,0.01664256 Z"
          id="path4247"
        ></path>
        <polygon
          id="path4249"
          points="13.8040678 0.791895893 13.6274278 0.791895893 13.6274278 0.03136256 13.5378812 0.03136256 13.2876412 0.18592256 13.3318012 0.258295893 13.5256145 0.14176256 13.5256145 0.791895893 13.3170812 0.791895893 13.3170812 0.875309227 13.8040678 0.875309227"
        ></polygon>
      </g>
      <g
        id="text4189"
        transform="translate(1.173333, 8.298667)"
        fill="#FFFFFF"
        fill-opacity="0.78431373"
      >
        <polygon
          id="path4269"
          points="0.0171695902 0.563645227 0.202771407 0.563645227 0.202771407 0.08906176 0.000859136 0.11906176 0.000859136 0.0423950933 0.201646533 0.0123950933 0.315257348 0.0123950933 0.315257348 0.563645227 0.500859136 0.563645227 0.500859136 0.634478507 0.0171695902 0.634478507"
        ></polygon>
        <polygon
          id="path4271"
          points="0.560502924 0.563645227 0.74610474 0.563645227 0.74610474 0.08906176 0.544192469 0.11906176 0.544192469 0.0423950933 0.744979867 0.0123950933 0.858590681 0.0123950933 0.858590681 0.563645227 1.04419247 0.563645227 1.04419247 0.634478507 0.560502924 0.634478507"
        ></polygon>
        <path
          d="M1.45610709,0.563645227 L1.8279424,0.563645227 L1.8279424,0.634478507 L1.3279424,0.634478507 L1.3279424,0.563645227 C1.36837851,0.530589653 1.42340661,0.48628409 1.49302671,0.430728533 C1.56299858,0.374895217 1.60695082,0.338923023 1.62488342,0.322811947 C1.65899028,0.292534116 1.68272446,0.26697856 1.69608596,0.24614528 C1.70979888,0.225034097 1.71665534,0.204339627 1.71665534,0.184061867 C1.71665534,0.151006293 1.70188746,0.124061867 1.67235169,0.103228587 C1.64316752,0.0823951644 1.60501705,0.0719784533 1.55790028,0.0719784533 C1.52449661,0.0719784533 1.48915908,0.0765617777 1.45188768,0.0857284267 C1.41496788,0.0948952177 1.37541094,0.108784142 1.33321686,0.1273952 L1.33321686,0.0423950933 C1.37611413,0.028784 1.41619847,0.01850624 1.45346986,0.0115618133 C1.49074125,0.00461738667 1.52484811,0.00114517333 1.55579044,0.00114517333 C1.63736566,0.00114517333 1.70241494,0.01725632 1.75093827,0.0494786133 C1.79946142,0.0817007644 1.82372299,0.124756267 1.82372299,0.17864512 C1.82372299,0.204200747 1.81756963,0.22850631 1.80526291,0.251561813 C1.79330797,0.274339556 1.77133194,0.301283983 1.73933483,0.332395093 C1.73054442,0.340450703 1.70259083,0.363784036 1.65547406,0.402395093 C1.60835729,0.440728533 1.54190163,0.494478577 1.45610709,0.563645227 Z"
          id="path4273"
        ></path>
        <path
          d="M2.21711239,0.29906176 C2.26628176,0.30767289 2.30459988,0.325589617 2.3320668,0.352811947 C2.3598728,0.380034133 2.37377579,0.413645227 2.37377579,0.453645227 C2.37377579,0.515034027 2.34800435,0.562534044 2.29646145,0.59614528 C2.24491855,0.629756373 2.17167339,0.64656192 2.07672596,0.64656192 C2.04485071,0.64656192 2.01195822,0.643922987 1.97804851,0.63864512 C1.9444777,0.633645156 1.90972013,0.626006257 1.87377579,0.615728427 L1.87377579,0.534478507 C1.9022601,0.5480896 1.93345712,0.55836736 1.96736683,0.565311787 C2.00127671,0.572256213 2.03671244,0.575728427 2.07367401,0.575728427 C2.13810267,0.575728427 2.18710232,0.565311787 2.22067295,0.544478507 C2.25458285,0.523645227 2.27153778,0.493367467 2.27153778,0.453645227 C2.27153778,0.41697849 2.25576969,0.38836736 2.22423351,0.36781184 C2.1930366,0.34697856 2.14946251,0.33656192 2.09351128,0.33656192 L2.00500664,0.33656192 L2.00500664,0.2673952 L2.09758045,0.2673952 C2.14810612,0.2673952 2.18676333,0.259200783 2.21355209,0.242811947 C2.24034068,0.22614521 2.25373497,0.202256284 2.25373497,0.171145173 C2.25373497,0.139200782 2.23983199,0.114756338 2.21202599,0.09781184 C2.18455907,0.0805895823 2.14505417,0.0719784533 2.09351128,0.0719784533 C2.06536621,0.0719784533 2.03518651,0.0744785067 2.00297218,0.0794786133 C1.97075785,0.0844785777 1.93532212,0.0922563556 1.896665,0.102811947 L1.896665,0.02781184 C1.9356612,0.0189229511 1.97211424,0.0122562844 2.00602413,0.00781184 C2.04027292,0.00336739556 2.07248716,0.00114517333 2.10266686,0.00114517333 C2.18065943,0.00114517333 2.24237532,0.0157284978 2.28781448,0.0448951467 C2.33325365,0.0737840356 2.35597324,0.112950684 2.35597324,0.162395093 C2.35597324,0.196839609 2.34393525,0.22600633 2.31985927,0.249895253 C2.2957833,0.273506276 2.26153433,0.28989511 2.21711239,0.29906176 Z"
          id="path4275"
        ></path>
        <path
          d="M2.7222179,0.0123950933 L3.1326733,0.0123950933 L3.1326733,0.0832285867 L2.81797355,0.0832285867 L2.81797355,0.235728427 C2.83315633,0.231561884 2.84833922,0.228506383 2.86352219,0.22656192 C2.87870498,0.224339697 2.89388787,0.223228587 2.90907084,0.223228587 C2.99533719,0.223228587 3.06366011,0.242256356 3.11403963,0.280311893 C3.16441933,0.31836743 3.18960917,0.369895183 3.18960917,0.434895147 C3.18960917,0.501839573 3.16372925,0.553922916 3.11196937,0.591145173 C3.06020949,0.62808967 2.98722814,0.64656192 2.89302526,0.64656192 C2.86058906,0.64656192 2.82746277,0.644339697 2.79364639,0.639895253 C2.76017506,0.63545081 2.725496,0.628784143 2.68960917,0.619895253 L2.68960917,0.535311787 C2.72066502,0.54892288 2.7527561,0.55906176 2.78588239,0.565728427 C2.81900868,0.572395093 2.85403278,0.575728427 2.89095474,0.575728427 C2.95065115,0.575728427 2.99792517,0.563089564 3.03277686,0.53781184 C3.06762837,0.512534116 3.08505412,0.47822855 3.08505412,0.434895147 C3.08505412,0.391561884 3.06762837,0.35725632 3.03277686,0.331978453 C2.99792517,0.30670073 2.95065115,0.294061867 2.89095474,0.294061867 C2.86300444,0.294061867 2.83505418,0.29656185 2.80710388,0.301561813 C2.77949863,0.306561777 2.75120332,0.314339556 2.7222179,0.324895147 L2.7222179,0.0123950933 Z"
          id="path4277"
        ></path>
        <path
          d="M3.47502571,0.33906176 C3.42815071,0.33906176 3.39120413,0.34975623 3.36418596,0.371145173 C3.33749328,0.392534116 3.32414696,0.421978596 3.32414696,0.459478613 C3.32414696,0.49697849 3.33749328,0.526422897 3.36418596,0.54781184 C3.39120413,0.569200783 3.42815071,0.579895253 3.47502571,0.579895253 C3.52190071,0.579895253 3.55884738,0.569200783 3.58586571,0.54781184 C3.61288388,0.526145137 3.62639296,0.49670073 3.62639296,0.459478613 C3.62639296,0.421978596 3.61288388,0.392534116 3.58586571,0.371145173 C3.55917303,0.34975623 3.52222638,0.33906176 3.47502571,0.33906176 Z M3.37639296,0.303228587 C3.33407528,0.294339697 3.30103496,0.27753415 3.27727196,0.252811947 C3.25383446,0.2280896 3.24211571,0.197950649 3.24211571,0.162395093 C3.24211571,0.112672924 3.26278628,0.0733673956 3.30412746,0.0444785067 C3.34579413,0.0155896178 3.40276021,0.00114517333 3.47502571,0.00114517333 C3.54761688,0.00114517333 3.60458303,0.0155896178 3.64592421,0.0444785067 C3.68726538,0.0733673956 3.70793596,0.112672924 3.70793596,0.162395093 C3.70793596,0.197950649 3.69605446,0.2280896 3.67229146,0.252811947 C3.64885396,0.27753415 3.61613913,0.294339697 3.57414696,0.303228587 C3.62167296,0.312672996 3.65861953,0.331145173 3.68498671,0.35864512 C3.71167938,0.38614521 3.72502571,0.419756373 3.72502571,0.459478613 C3.72502571,0.519756373 3.70337863,0.56600633 3.66008446,0.59822848 C3.61711563,0.630450773 3.55542938,0.64656192 3.47502571,0.64656192 C3.39462221,0.64656192 3.33277328,0.630450773 3.28947896,0.59822848 C3.24651013,0.56600633 3.22502571,0.519756373 3.22502571,0.459478613 C3.22502571,0.419756373 3.23837213,0.38614521 3.26506496,0.35864512 C3.29175763,0.331145173 3.32886696,0.312672996 3.37639296,0.303228587 Z M3.34026021,0.170311893 C3.34026021,0.202534044 3.35197896,0.22767289 3.37541646,0.245728427 C3.39917946,0.263784107 3.43238253,0.272811947 3.47502571,0.272811947 C3.51734353,0.272811947 3.55038396,0.263784107 3.57414696,0.245728427 C3.59823546,0.22767289 3.61027971,0.202534044 3.61027971,0.170311893 C3.61027971,0.1380896 3.59823546,0.112950684 3.57414696,0.0948951467 C3.55038396,0.076839609 3.51734353,0.06781184 3.47502571,0.06781184 C3.43238253,0.06781184 3.39917946,0.076839609 3.37541646,0.0948951467 C3.35197896,0.112950684 3.34026021,0.1380896 3.34026021,0.170311893 Z"
          id="path4279"
        ></path>
      </g>
      <g
        id="text4214"
        transform="translate(6.570667, 8.277333)"
        fill="#FFFFFF"
        fill-opacity="0.78431373"
      >
        <polygon
          id="path4252"
          points="0.0220655891 0.564333227 0.20766733 0.564333227 0.20766733 0.0897499733 0.00575530667 0.119749973 0.00575530667 0.0430833067 0.206542543 0.0130833067 0.320153278 0.0130833067 0.320153278 0.564333227 0.505755307 0.564333227 0.505755307 0.63516672 0.0220655891 0.63516672"
        ></polygon>
        <path
          d="M0.863675164,0.299749973 C0.912844349,0.308361103 0.951162487,0.32627776 0.978629574,0.353499947 C1.00643557,0.380722133 1.02033856,0.414333227 1.02033856,0.454333227 C1.02033856,0.51572217 0.994567115,0.563222187 0.943024221,0.59683328 C0.891481328,0.630444373 0.818236165,0.64724992 0.723288732,0.64724992 C0.691413479,0.64724992 0.658520997,0.644611057 0.624611286,0.639333333 C0.591040477,0.63433337 0.556282903,0.62669447 0.52033856,0.61641664 L0.52033856,0.53516672 C0.548822704,0.548777813 0.580019716,0.559055573 0.613929602,0.566 C0.647839313,0.572944427 0.683275041,0.57641664 0.720236785,0.57641664 C0.784665444,0.57641664 0.833665091,0.566 0.867235726,0.54516672 C0.901145611,0.524333297 0.918100552,0.494055467 0.918100552,0.454333227 C0.918100552,0.41766663 0.902332464,0.389055573 0.870796287,0.368500053 C0.839599361,0.34766663 0.796025281,0.33724992 0.740074049,0.33724992 L0.651569412,0.33724992 L0.651569412,0.268083413 L0.744143225,0.268083413 C0.79466889,0.268083413 0.833326015,0.259888924 0.860114603,0.243499947 C0.886903366,0.22683335 0.900297746,0.202944498 0.900297746,0.171833387 C0.900297746,0.139888853 0.886394751,0.115444409 0.85858876,0.0985000533 C0.831121844,0.0812777956 0.791616943,0.0726666667 0.740074049,0.0726666667 C0.711928981,0.0726666667 0.681749284,0.075166649 0.649534954,0.0801666133 C0.617320625,0.0851665777 0.581884896,0.0929443556 0.543227771,0.103499947 L0.543227771,0.0285000533 C0.582223973,0.0196111644 0.61867693,0.0129444978 0.652586641,0.00850005333 C0.686835603,0.0040556089 0.719049932,0.00183338667 0.74922963,0.00183338667 C0.827222207,0.00183338667 0.888938084,0.0164167111 0.934377255,0.04558336 C0.979816255,0.074472249 1.00253575,0.113638898 1.00253575,0.163083307 C1.00253575,0.197527822 0.99049785,0.22669447 0.966422047,0.250583253 C0.942346069,0.274194417 0.908097107,0.290583324 0.863675164,0.299749973 Z"
          id="path4254"
        ></path>
        <path
          d="M1.18933653,0.564333227 L1.56117184,0.564333227 L1.56117184,0.63516672 L1.06117184,0.63516672 L1.06117184,0.564333227 C1.10160795,0.531277796 1.15663605,0.486972303 1.22625615,0.431416747 C1.29622802,0.37558329 1.34018026,0.339611023 1.35811286,0.323499947 C1.39221972,0.293222257 1.41595381,0.267666703 1.42931513,0.24683328 C1.44302823,0.22572224 1.44988478,0.20502784 1.44988478,0.18475008 C1.44988478,0.151694507 1.4351169,0.124750009 1.40558113,0.103916587 C1.37639678,0.0830833067 1.33824631,0.0726666667 1.29112972,0.0726666667 C1.25772605,0.0726666667 1.22238852,0.077249991 1.18511712,0.08641664 C1.14819715,0.095583289 1.10864011,0.109472213 1.06644603,0.128083413 L1.06644603,0.0430833067 C1.10934348,0.0294722133 1.14942791,0.0191944533 1.1866993,0.0122500267 C1.22397069,0.0053056 1.25807755,0.00183338667 1.28901988,0.00183338667 C1.3705951,0.00183338667 1.43564429,0.0179444622 1.48416744,0.0501666133 C1.53269077,0.0823889067 1.55695243,0.12544448 1.55695243,0.179333333 C1.55695243,0.204888818 1.55079907,0.229194383 1.53849235,0.252250027 C1.52653741,0.27502777 1.50456138,0.301972196 1.47256427,0.333083307 C1.46377386,0.341138916 1.43582027,0.36447225 1.3887035,0.403083307 C1.34158673,0.441416604 1.27513107,0.495166577 1.18933653,0.564333227 Z"
          id="path4256"
        ></path>
        <polygon
          id="path4258"
          points="1.65206559 0.564333227 1.83766733 0.564333227 1.83766733 0.0897499733 1.63575531 0.119749973 1.63575531 0.0430833067 1.83654254 0.0130833067 1.95015328 0.0130833067 1.95015328 0.564333227 2.13575531 0.564333227 2.13575531 0.63516672 1.65206559 0.63516672"
        ></polygon>
        <path
          d="M2.76534198,0.299749973 C2.81451117,0.308361103 2.85282921,0.32627776 2.88029613,0.353499947 C2.90810213,0.380722133 2.92200512,0.414333227 2.92200512,0.454333227 C2.92200512,0.51572217 2.89623368,0.563222187 2.84469078,0.59683328 C2.79314788,0.630444373 2.71990272,0.64724992 2.62495529,0.64724992 C2.59308022,0.64724992 2.56018774,0.644611057 2.52627785,0.639333333 C2.49270721,0.63433337 2.45794963,0.62669447 2.42200512,0.61641664 L2.42200512,0.53516672 C2.45048943,0.548777813 2.48168645,0.559055573 2.51559616,0.566 C2.54950605,0.572944427 2.58494187,0.57641664 2.62190361,0.57641664 C2.68633208,0.57641664 2.73533173,0.566 2.76890255,0.54516672 C2.80281226,0.524333297 2.81976711,0.494055467 2.81976711,0.454333227 C2.81976711,0.41766663 2.8039991,0.389055573 2.77246311,0.368500053 C2.74126601,0.34766663 2.69769184,0.33724992 2.64174061,0.33724992 L2.55323623,0.33724992 L2.55323623,0.268083413 L2.64580978,0.268083413 C2.69633546,0.268083413 2.73499265,0.259888924 2.76178142,0.243499947 C2.78857019,0.22683335 2.80196457,0.202944498 2.80196457,0.171833387 C2.80196457,0.139888853 2.78806158,0.115444409 2.76025558,0.0985000533 C2.7327885,0.0812777956 2.69328351,0.0726666667 2.64174061,0.0726666667 C2.61359553,0.0726666667 2.58341584,0.075166649 2.55120151,0.0801666133 C2.51898718,0.0851665777 2.48355145,0.0929443556 2.44489433,0.103499947 L2.44489433,0.0285000533 C2.48389052,0.0196111644 2.52034357,0.0129444978 2.55425346,0.00850005333 C2.58850243,0.0040556089 2.62071676,0.00183338667 2.65089645,0.00183338667 C2.72888886,0.00183338667 2.79060465,0.0164167111 2.83604382,0.04558336 C2.88148298,0.074472249 2.90420257,0.113638898 2.90420257,0.163083307 C2.90420257,0.197527822 2.89216458,0.22669447 2.86808861,0.250583253 C2.84401263,0.274194417 2.80976376,0.290583324 2.76534198,0.299749973 Z"
          id="path4260"
        ></path>
        <path
          d="M3.25174794,0.08641664 L3.01737288,0.418500053 L3.25174794,0.418500053 L3.25174794,0.08641664 Z M3.22739124,0.0130833067 L3.34411924,0.0130833067 L3.34411924,0.418500053 L3.44200512,0.418500053 L3.44200512,0.488500053 L3.34411924,0.488500053 L3.34411924,0.63516672 L3.25174794,0.63516672 L3.25174794,0.488500053 L2.94200512,0.488500053 L2.94200512,0.40724992 L3.22739124,0.0130833067 Z"
          id="path4262"
        ></path>
        <path
          d="M3.54211402,0.0130833067 L3.95256964,0.0130833067 L3.95256964,0.0839165867 L3.63786972,0.0839165867 L3.63786972,0.23641664 C3.65305251,0.232249956 3.66823541,0.229194383 3.68341839,0.22724992 C3.69860119,0.225027697 3.71378409,0.223916587 3.72896706,0.223916587 C3.81523345,0.223916587 3.88355641,0.242944356 3.93393596,0.280999893 C3.98431551,0.319055573 4.00950528,0.370583396 4.00950528,0.43558336 C4.00950528,0.502527787 3.98362542,0.55461113 3.9318657,0.591833387 C3.88010579,0.628777743 3.8071244,0.64724992 3.71292148,0.64724992 C3.68048526,0.64724992 3.64735895,0.645027697 3.61354256,0.640583253 C3.5800712,0.63613881 3.54539212,0.629472143 3.50950528,0.620583253 L3.50950528,0.536 C3.54056114,0.549611093 3.57265224,0.559749973 3.60577854,0.56641664 C3.63890485,0.573083307 3.67392898,0.57641664 3.71085095,0.57641664 C3.77054739,0.57641664 3.81782144,0.563777777 3.85267315,0.538500053 C3.88752468,0.513222187 3.90495044,0.478916623 3.90495044,0.43558336 C3.90495044,0.392249956 3.88752468,0.35794439 3.85267315,0.332666667 C3.81782144,0.307388943 3.77054739,0.29475008 3.71085095,0.29475008 C3.68290064,0.29475008 3.65495036,0.297250063 3.62700005,0.302250027 C3.59939479,0.30724999 3.57109946,0.31502777 3.54211402,0.32558336 L3.54211402,0.0130833067 Z"
          id="path4264"
        ></path>
        <path
          d="M4.08544736,0.0130833067 L4.49590297,0.0130833067 L4.49590297,0.0839165867 L4.18120305,0.0839165867 L4.18120305,0.23641664 C4.19638585,0.232249956 4.21156875,0.229194383 4.22675173,0.22724992 C4.24193452,0.225027697 4.25711742,0.223916587 4.2723004,0.223916587 C4.35856679,0.223916587 4.42688974,0.242944356 4.47726929,0.280999893 C4.52764884,0.319055573 4.55283861,0.370583396 4.55283861,0.43558336 C4.55283861,0.502527787 4.52695875,0.55461113 4.47519903,0.591833387 C4.42343912,0.628777743 4.35045773,0.64724992 4.25625481,0.64724992 C4.22381859,0.64724992 4.19069228,0.645027697 4.15687589,0.640583253 C4.12340454,0.63613881 4.08872545,0.629472143 4.05283861,0.620583253 L4.05283861,0.536 C4.08389447,0.549611093 4.11598557,0.559749973 4.14911188,0.56641664 C4.18223818,0.573083307 4.21726231,0.57641664 4.25418428,0.57641664 C4.31388072,0.57641664 4.36115477,0.563777777 4.39600648,0.538500053 C4.43085801,0.513222187 4.44828377,0.478916623 4.44828377,0.43558336 C4.44828377,0.392249956 4.43085801,0.35794439 4.39600648,0.332666667 C4.36115477,0.307388943 4.31388072,0.29475008 4.25418428,0.29475008 C4.22623398,0.29475008 4.19828369,0.297250063 4.17033338,0.302250027 C4.14272812,0.30724999 4.11443279,0.31502777 4.08544736,0.32558336 L4.08544736,0.0130833067 Z"
          id="path4266"
        ></path>
      </g>
    </g>
  </g>
  <defs></defs>
</svg>
