<svg viewBox="0 0 19 11" xmlns="http://www.w3.org/2000/svg">
  <g stroke="none" stroke-width="1" fill="none" fill-rule="evenodd">
    <g transform="translate(-234.000000, -117.000000)" fill="currentColor" fill-rule="nonzero">
      <g transform="translate(243.500000, 122.500000) scale(-1, 1) rotate(-90.000000) translate(-243.500000, -122.500000) translate(238.000000, 113.000000)">
        <path d="M10.6508221,2.89138925 C10.8763106,2.65594198 11,2.33699089 11,2.00223173 C11,1.66747257 10.8763106,1.35075321 10.6508221,1.114748 L9.93431317,0.365631393 C9.70900263,0.130184118 9.40876655,0 9.08859777,0 C8.76825103,0 8.46783698,0.129254231 8.24252643,0.364701506 L0.349004746,8.61260926 C0.122804352,8.84898642 -0.00088508399,9.16384601 4.76807039e-06,9.49879115 C-0.00088508399,9.83559606 0.122804352,10.1506416 0.349004746,10.3866468 L8.24252643,18.6352985 C8.46783698,18.8705598 8.76807306,19 9.08859777,19 C9.40876655,19 9.70900263,18.8703738 9.93431317,18.6352985 L10.6508221,17.8861819 C10.8763106,17.6511066 11,17.3371769 11,17.0024177 C11,16.6678445 10.8763106,16.3704668 10.6508221,16.1352055 L4.68892848,10.0984813 C4.36149783,9.76694091 4.36203331,9.23358899 4.69012903,8.90270674 L10.6508221,2.89138925 Z"></path>
        </g>
      </g>
  </g>
</svg>
