<svg viewBox="0 0 16 10" xmlns="http://www.w3.org/2000/svg">
  <g stroke="none" stroke-width="1" fill="none" fill-rule="evenodd">
    <g fill-rule="nonzero">
      <path
        d="M0.853333333,0 L15.1466667,0 C15.6181333,0 16,0.380042463 16,0.8492569 L16,9.1507431 C16,9.61995754 15.6181333,10 15.1466667,10 L0.853333333,10 C0.381866667,10 0,9.61995754 0,9.1507431 L0,0.8492569 C0,0.380042463 0.381866667,0 0.853333333,0 Z"
        fill="#000000"
      ></path>
      <path
        d="M3.21493333,3.63946667 C3.36,3.5904 3.51573333,3.5648 3.67786667,3.5648 C4.38613333,3.5648 4.97706667,4.06826667 5.11146667,4.736 L6.11413333,4.5312 C5.88373333,3.39626667 4.88106667,2.5408 3.67786667,2.5408 C3.40266667,2.5408 3.13813333,2.5856 2.89066667,2.6688 L3.21493333,3.63946667 Z"
        fill="#FFF100"
      ></path>
      <path
        d="M2.03093333,6.89066667 L2.70933333,6.12266667 C2.4064,5.85386667 2.21653333,5.46346667 2.21653333,5.02613333 C2.21653333,4.59093333 2.4064,4.1984 2.70933333,3.93173333 L2.03093333,3.16586667 C1.5168,3.6224 1.19253333,4.28586667 1.19253333,5.02826667 C1.19253333,5.76853333 1.5168,6.43413333 2.03093333,6.89066667 Z"
        fill="#00A3DF"
      ></path>
      <path
        d="M5.11146667,5.32053333 C4.97493333,5.98826667 4.38613333,6.4896 3.67786667,6.4896 C3.51573333,6.4896 3.36,6.464 3.2128,6.41493333 L2.88853333,7.3856 C3.136,7.4688 3.40266667,7.5136 3.67786667,7.5136 C4.88106667,7.5136 5.88373333,6.66026667 6.11413333,5.52533333 L5.11146667,5.32053333 Z"
        fill="#EE4023"
      ></path>
      <g transform="translate(7.296000, 3.157333)" fill="#FFFFFF">
        <path
          d="M2.15893333,2.85013333 C1.99253333,3.01226667 1.76853333,3.1104 1.52106667,3.10613333 C1.3504,3.104 1.19253333,3.0528 1.06026667,2.96746667 L0.727466667,3.49653333 C0.955733333,3.63946667 1.2224,3.7248 1.51253333,3.72906667 C1.9328,3.73546667 2.3168,3.56906667 2.59626667,3.29813333 L2.15893333,2.85013333 Z M1.55733333,0.693333333 C0.721066667,0.680533333 0.0298666667,1.3504 0.0170666667,2.18666667 C0.0128,2.50026667 0.1024,2.79466667 0.2624,3.03786667 L3.01013333,1.8624 C2.85653333,1.2032 2.26773333,0.706133333 1.55733333,0.693333333 Z M0.6464,2.30613333 C0.642133333,2.272 0.64,2.23573333 0.64,2.19946667 C0.648533333,1.70666667 1.05386667,1.312 1.54666667,1.32053333 C1.81546667,1.3248 2.0544,1.4464 2.2144,1.6384 L0.6464,2.30613333 Z M3.87413333,0.0106666667 L3.87413333,2.93973333 L4.38186667,3.15093333 L4.1408,3.72906667 L3.63733333,3.52 C3.52426667,3.47093333 3.44746667,3.39626667 3.38986667,3.31093333 C3.3344,3.2256 3.29173333,3.10613333 3.29173333,2.94826667 L3.29173333,0.0106666667 L3.87413333,0.0106666667 Z"
        ></path>
        <path
          d="M5.70666667,1.36533333 C5.79626667,1.33546667 5.89013333,1.32053333 5.9904,1.32053333 C6.42346667,1.32053333 6.78186667,1.62773333 6.86506667,2.0352 L7.47733333,1.90933333 C7.33653333,1.216 6.72426667,0.695466667 5.9904,0.695466667 C5.82186667,0.695466667 5.65973333,0.7232 5.5104,0.772266667 L5.70666667,1.36533333 Z M4.98346667,3.3472 L5.39733333,2.88 C5.21173333,2.71573333 5.09653333,2.4768 5.09653333,2.21013333 C5.09653333,1.94346667 5.21386667,1.70453333 5.39733333,1.5424 L4.98346667,1.0752 C4.66986667,1.35253333 4.47146667,1.76 4.47146667,2.21226667 C4.47146667,2.66453333 4.66986667,3.06986667 4.98346667,3.3472 Z M6.86506667,2.39146667 C6.78186667,2.79893333 6.42133333,3.10613333 5.9904,3.10613333 C5.89226667,3.10613333 5.79626667,3.08906667 5.70666667,3.0592 L5.50826667,3.65226667 C5.65973333,3.70346667 5.82186667,3.7312 5.9904,3.7312 C6.72426667,3.7312 7.33653333,3.21066667 7.47733333,2.51733333 L6.86506667,2.39146667 Z"
        ></path>
      </g>
    </g>
  </g>
</svg>
